<?xml version="1.0" encoding="UTF-8"?>
<svg width="484px" height="351px" viewBox="0 0 484 351" version="1.1" xmlns="http://www.w3.org/2000/svg" xmlns:xlink="http://www.w3.org/1999/xlink">
    <title>Artboard</title>
    <defs>
        <radialGradient cx="24.8925295%" cy="-18.5111322%" fx="24.8925295%" fy="-18.5111322%" r="126.193439%" gradientTransform="translate(0.2489, -0.1851), scale(0.5857, 1), rotate(-47.4323), scale(1, 1.3702), translate(-0.2489, 0.1851)" id="radialGradient-1">
            <stop stop-color="#D1CFC7" offset="0%"></stop>
            <stop stop-color="#261E23" offset="100%"></stop>
        </radialGradient>
        <radialGradient cx="11.2503951%" cy="-47.6537544%" fx="11.2503951%" fy="-47.6537544%" r="217.06278%" gradientTransform="translate(0.1125, -0.4765), scale(0.2549, 1), rotate(-25.3512), scale(1, 1.3702), translate(-0.1125, 0.4765)" id="radialGradient-2">
            <stop stop-color="#D1CFC7" offset="0%"></stop>
            <stop stop-color="#261E23" offset="100%"></stop>
        </radialGradient>
        <radialGradient cx="71.6993257%" cy="-25.2270915%" fx="71.6993257%" fy="-25.2270915%" r="145.084702%" gradientTransform="translate(0.717, -0.2523), scale(0.6845, 1), rotate(-168.5623), scale(1, 1.3702), translate(-0.717, 0.2523)" id="radialGradient-3">
            <stop stop-color="#D1CFC7" offset="0%"></stop>
            <stop stop-color="#261E23" offset="100%"></stop>
        </radialGradient>
        <radialGradient cx="50%" cy="-19.2828085%" fx="50%" fy="-19.2828085%" r="198.649769%" gradientTransform="translate(0.5, -0.1928), scale(1, 0.4834), rotate(-75.4219), scale(1, 0.7164), translate(-0.5, 0.1928)" id="radialGradient-4">
            <stop stop-color="#D1CFC7" offset="0%"></stop>
            <stop stop-color="#261E23" offset="100%"></stop>
        </radialGradient>
    </defs>
    <g id="Artboard" stroke="none" stroke-width="1" fill="none" fill-rule="evenodd">
        <rect id="Rectangle" stroke="#261E23" stroke-width="5" fill="#335C67" x="77.6" y="242.026316" width="400" height="75"></rect>
        <rect id="Rectangle" stroke="#261E23" stroke-width="5" fill="#670034" x="17.6" y="167.026316" width="400" height="75"></rect>
        <rect id="Rectangle" fill="#000000" opacity="0.164946057" transform="translate(125, 279) rotate(-45) translate(-125, -279)" x="110" y="264" width="30" height="30"></rect>
        <rect id="Rectangle" fill="#000000" opacity="0.164946057" transform="translate(57, 205) rotate(-45) translate(-57, -205)" x="42" y="190" width="30" height="30"></rect>
        <rect id="Rectangle" fill="#000000" opacity="0.164946057" x="172" y="269" width="263" height="21"></rect>
        <rect id="Rectangle" fill="#000000" opacity="0.164946057" x="95" y="194" width="263" height="21"></rect>
        <path d="M267.373132,64.4719977 C305.791303,58.6730285 333.833485,66.8021349 354.200541,80.5674716 C388.936692,104.044345 401.359837,143.691185 405.188616,157.686034 C407.79997,167.230982 404.363518,183.084517 401.017051,199.241991 L400.853487,200.031802 L400.376792,202.338725 C400.286481,202.777068 400.196665,203.215196 400.107428,203.653017 L399.841542,204.965461 L399.579646,206.275492 C395.510512,226.77746 393.098151,246.183119 401.185118,254.719362 C410.321932,264.363776 423.593242,270.84236 435.239486,276.47083 C445.926341,281.63564 455.529848,285.795859 457.640354,291.825876 C459.651304,297.571446 460.770438,314.2402 456.218119,326.459583 C454.770287,330.345869 452.7444,333.787249 449.887721,336.173285 C447.511351,338.158143 444.553834,339.376251 440.914038,339.501478 C417.428423,340.309501 365.454267,331.289313 362.027747,326.537727 C348.285703,307.481512 350.412456,267.922383 351.651203,241.4728 C352.078604,232.346972 352.426938,224.714338 352.094157,219.855492 C351.192988,206.697745 359.248934,188.269158 375.734899,164.496031 L339.6,164.526316 L236.977365,164.526316 C238.081813,188.089282 239.53403,205.317493 241.322735,216.221447 L241.461619,217.051314 C241.817255,219.134182 242.186466,220.976673 242.567984,222.579051 C247.244971,242.222393 247.586857,244.296335 244.768768,249.872346 C242.766109,253.834906 239.727729,256.696011 236.116055,258.639157 C231.885574,260.915233 226.884357,261.946593 221.794344,262.037486 C210.111327,262.246111 197.719726,257.57265 193.080126,250.61325 C189.6056,245.40146 191.772939,240.507441 193.901497,234.689179 C195.243889,231.019845 196.700533,227.003706 197.465985,222.410997 C198.124522,218.459775 197.992097,200.356755 194.075581,189.446462 C192.694318,185.598658 190.802266,182.639532 188.521408,181.088599 C187.245307,180.220879 185.839245,179.740557 184.300629,179.701326 C182.954438,179.667 181.485477,179.975764 179.897274,180.756343 C171.944945,184.664802 159.23426,185.388415 137.131074,180.583375 C137.085248,180.573413 136.909037,180.295382 136.535366,180.04696 C134.094338,178.412886 129.93866,175.526514 123.79674,171.207288 L117.937304,162.836664 C148.306205,107.672015 198.146017,74.9213736 267.373132,64.4719977 Z" id="Oval" stroke="#261E23" stroke-width="5" fill="#E09F3E"></path>
        <g id="dewey-head" transform="translate(5.8833, 2.9977)">
            <path d="M160.716695,54.0285929 C144.785817,31.0881284 150.716695,1.02859293 139.716695,0.028592927 C132.383362,-0.63807374 125.81113,10.3531543 120,33.0022771 L60,58.0022771 C39.8111303,45.3531543 27.7166954,41.0285929 23.7166954,45.0285929 C17.7166954,51.0285929 38.0274424,86.1975891 39.7166954,104.028593 C40.842864,115.915929 33.1761974,123.582596 16.7166954,127.028593 C40.5152195,144.361926 58.5152195,153.028593 70.7166954,153.028593 C82.7166954,153.028593 79.7166954,146.028593 98.7166954,153.028593 C121.422668,161.393951 151.022837,146.231986 164.716695,125.028593 C172.719715,112.63682 180.612845,124.021339 185.716695,115.028593 C191.100776,105.542094 193.767443,88.8754272 193.716695,65.0285929 C182.337281,72.9889026 171.337281,69.3222359 160.716695,54.0285929 Z" stroke="#261E23" stroke-width="5" fill="#E09F3E" stroke-linecap="square"></path>
            <g id="head-stripes" transform="translate(91.773, 59.6532) rotate(-7) translate(-91.773, -59.6532)translate(84.3634, 44.2866)" fill="#261E23">
                <polygon id="Rectangle" points="-1.25419608e-11 3.72586878 10.5523167 -4.63648034e-14 14.8190971 30.7331708"></polygon>
            </g>
            <g id="head-stripes" transform="translate(104.773, 54.6532) rotate(-7) translate(-104.773, -54.6532)translate(97.3634, 39.2866)" fill="#261E23">
                <polygon id="Rectangle" points="-1.25419608e-11 3.72586878 10.5523167 -4.63648034e-14 14.8190971 30.7331708"></polygon>
            </g>
            <g id="head-stripes" transform="translate(78.773, 64.6532) rotate(-7) translate(-78.773, -64.6532)translate(71.3634, 49.2866)" fill="#261E23">
                <polygon id="Rectangle" points="-1.25419608e-11 3.72586878 10.5523167 -4.63648034e-14 14.8190971 30.7331708"></polygon>
            </g>
            <g id="whiskers" transform="translate(0, 43.2586)" stroke-linecap="round" stroke-width="5">
                <path d="M17.1166954,48.7436658 C14.4500287,44.7436658 11.4500287,43.7436658 8.11669538,45.7436658 C3.11669538,48.7436658 13.1555692,64.8770934 25.1166954,71.7436658 C33.0907795,76.3213808 45.4241128,77.9880475 62.1166954,76.7436658" id="Line-2" stroke="url(#radialGradient-1)"></path>
                <path d="M7.14643172,91.1225926 C1.14643172,93.7892592 -1.18690161,97.1225926 0.14643172,101.122593 C2.14643172,107.122593 45.0764288,92.2352041 66.3339,85.5542846" id="Line-2" stroke="url(#radialGradient-2)" transform="translate(33.0583, 94.036) scale(1, -1) rotate(30) translate(-33.0583, -94.036)"></path>
                <path d="M172.001848,68.6787661 C182.908647,68.1510397 191.580867,65.8384323 198.018509,61.7409439 C207.67497,55.5947114 211.751755,46.5779721 210.055701,44.4579043 C207.389034,41.124571 204.055701,41.7912377 200.055701,46.4579043" id="Line-2" stroke="url(#radialGradient-3)" transform="translate(191.2159, 55.5267) scale(1, -1) rotate(30) translate(-191.2159, -55.5267)"></path>
                <path d="M165.216695,45.2699816 C174.663192,34.1134519 180.296525,26.2713466 182.116695,21.7436658 C184.846951,14.9521446 189.017231,7.67457571 186.116695,2.74366584 C184.183005,-0.5436074 181.183005,-0.876940734 177.116695,1.74366584" id="Line-2" stroke="url(#radialGradient-4)"></path>
            </g>
            <g id="cat-eyes" transform="translate(106.0307, 92.4031) rotate(-360) translate(-106.0307, -92.4031)translate(71.9447, 73.0023)" stroke="#261E23" stroke-linecap="round" stroke-width="5">
                <path d="M51.1719934,17 C49.8386601,15 50.1719934,13 52.1719934,11 C54.1719934,9 59.5053267,5.33333333 68.1719934,0" id="Line"></path>
                <path d="M4.17199341,35 C2.83866008,33 3.17199341,31 5.17199341,29 C7.17199341,27 12.5053267,23.3333333 21.1719934,18" id="Line" transform="translate(12.272, 26.5) scale(-1, 1) rotate(48) translate(-12.272, -26.5)"></path>
            </g>
            <g id="cat-mouth" transform="translate(95.1167, 102.0286)">
                <path d="M0,26.9736842 C8.68413706,30.029481 14.8841371,31.3715863 18.6,31 C24.1737944,30.4426206 28,23.9736842 26,19.9736842 C24.6666667,17.3070175 23.0333333,13.8157895 21.1,9.5" id="Line-2" stroke="#261E23" stroke-width="5" stroke-linecap="round"></path>
                <path d="M25,17.9736842 C27.1536302,22.7136418 30.8202968,24.7136418 36,23.9736842 C40.6666667,23.3070175 44.3333333,18.9736842 47,10.9736842" id="Line-2" stroke="#261E23" stroke-width="5" stroke-linecap="round"></path>
                <path d="M24.7402702,18 C25.3415972,16.8241051 25.7759293,15.9591267 26.0432665,15.4050649 C27.0250785,13.3702399 27.8071152,11.5385434 28.3893768,9.9099754 C30.1480564,4.99100226 30.0841892,1.92516841 28.1977754,0.71247383 C24.0486945,-1.95479248 9.44565672,3.42542958 8.60524578,7.6274843 C8.31752062,9.06611012 9.59596948,10.6777767 12.4405924,12.4624839 C13.1429538,12.9031432 14.2401203,13.4989916 15.6807417,14.1955032 C16.6342515,14.656506 17.7382211,15.1616071 18.9777615,15.6949965 C20.0961382,16.1762477 22.0169744,16.9445822 24.7402702,18 Z" id="Oval" fill="#261E23"></path>
            </g>
            <g id="cat-ears" transform="translate(26.7113, 4.5919)" fill="#261E23">
                <path d="M11.00542,76.4366769 L16.2887246,70.4103611 L13.2887246,66.4103611 L17.2887246,64.4103611 L14.2887246,61.4103611 L18.2887246,59.4103611 C12.1821661,52.1784464 8.75439787,48.1872184 8.00542002,47.4366769 C5.05729117,44.4823931 0.396039592,43.483579 0.00542002016,45.4366769 C-0.161015108,46.2688525 3.50565156,56.6021858 11.00542,76.4366769 Z" id="Oval"></path>
                <path d="M116.00542,34.4366769 L121.288725,28.4103611 L118.288725,24.4103611 L122.288725,22.4103611 L119.288725,19.4103611 L123.288725,17.4103611 C117.182166,10.1784464 113.754398,6.18721838 113.00542,5.43667685 C110.057291,2.48239307 105.39604,1.48357899 105.00542,3.43667685 C104.838985,4.26885249 108.505652,14.6021858 116.00542,34.4366769 Z" id="Oval" transform="translate(114.1444, 18.4323) scale(-1, 1) rotate(30) translate(-114.1444, -18.4323)"></path>
            </g>
        </g>
        <path d="M229.08989,222.458613 C237.884119,225.226562 237.637411,247.019407 234.8745,260.439375 C233.075717,269.176392 211.729096,265.455593 207.321941,264.161807 C200.682504,262.212702 197.784246,252.500235 206.697585,237.243223 C209.299771,232.789047 220.295661,219.690664 229.08989,222.458613 Z" id="Rectangle" fill="#FFFFFF" transform="translate(218.8408, 244.0702) rotate(-480) translate(-218.8408, -244.0702)"></path>
        <g id="Group-2" transform="translate(22.7248, 134.0472)">
            <path d="M5.02969939,29.061635 C8.7764791,36.5551944 22.4711194,49.034134 33.9012568,53.0235819 C51.1121102,59.0306666 83.5461733,57.9832821 97.5425733,68.8045939 C111.538973,79.6259056 117.95192,84.0839446 129.731945,81.0456863 C141.51197,78.007428 144.011128,40.4127894 135.597572,33.3529781 C128.014119,26.9897054 118.400795,31.8460416 109.435043,32.6304433 C100.46929,33.414845 59.7299374,12.061635 45.0296994,12.061635 C21.0296994,12.061635 25.9169437,4.49162155 14.0296994,6.06163495 C2.14245509,7.63164835 1.28291968,21.5680755 5.02969939,29.061635 Z" id="Line-14" stroke="#261E23" stroke-width="5" fill="#E09F3E" stroke-linecap="square" transform="translate(71.8082, 43.9131) rotate(5) translate(-71.8082, -43.9131)"></path>
            <path d="M129.512417,42.2423809 C134.448434,46.1911946 138.077915,63.6384696 136.512417,71.2423809 C134.713634,79.9793979 114.919572,83.536167 110.512417,82.2423809 C103.87298,80.2932756 98.5124168,75.2423809 104.512417,54.2423809 C110.512417,33.2423809 124.5764,38.2935673 129.512417,42.2423809 Z" id="Rectangle" fill="#FFFFFF" transform="translate(119.3938, 60.5976) rotate(-540) translate(-119.3938, -60.5976)"></path>
            <line x1="133.375209" y1="73.4790871" x2="123.375209" y2="70.4790871" id="Line-15" stroke="#261E23" stroke-width="3" stroke-linecap="round"></line>
            <line x1="136.875209" y1="57.9790871" x2="126.875209" y2="54.9790871" id="Line-15" stroke="#261E23" stroke-width="3" stroke-linecap="round"></line>
        </g>
        <line x1="210.09995" y1="247.026316" x2="210.09995" y2="258.026316" id="Line-15" stroke="#261E23" stroke-width="3" stroke-linecap="round"></line>
        <line x1="228.59995" y1="248.526316" x2="228.59995" y2="259.526316" id="Line-15" stroke="#261E23" stroke-width="3" stroke-linecap="round"></line>
        <path d="M237,168 C235.666667,160 234.333333,154.333333 233,151 C231.666667,147.666667 228.333333,143.333333 223,138" id="Line-2" stroke="#261E23" stroke-width="4" stroke-linecap="round"></path>
        <path d="M267,163 C259.599735,156.900929 256.933068,150.234262 259,143 C261.066932,135.765738 266.600265,130.77451 275.6,128.026316" id="Line-2" stroke="#261E23" stroke-width="4" stroke-linecap="round"></path>
        <path d="M405.953498,291.407161 C410.383893,289.563451 401.89132,284.443059 407.855422,282.112932 C413.819524,279.782805 415.513362,288.678217 420.113752,286.880881 C424.714142,285.083546 421.142319,273.936178 434.274006,282.354602 C447.405694,290.773026 454.567416,302.283329 456.352845,310.112932 C461.510008,332.728531 435.979092,346.637635 432.620794,347.21805 C424.924641,348.548177 406.867971,335.04945 387.036379,318.785674 C367.204787,302.521898 368.606711,294.093694 370.606711,290.629593 C372.606711,287.165491 384.463117,298.629593 390.793244,297.665491 C397.123371,296.701389 384.999015,289.701389 390.097092,286.871262 C395.195168,284.041135 401.523103,293.25087 405.953498,291.407161 Z" id="Rectangle" fill="#F2C47F" transform="translate(413.2792, 313.2771) rotate(-30) translate(-413.2792, -313.2771)"></path>
        <path d="M449.20729,309.14971 C455.805366,303.721507 463.984796,318.571058 456.563696,328.40804 C452.620235,333.635265 447.697671,341.764447 438.769468,341.228548 C429.841264,340.69265 421.188047,332.681618 409.824604,323.362523 C398.461161,314.043428 402.518356,316.017316 403.66435,314.032396 C404.810344,312.047476 423.321816,322.254696 426.948959,321.702269 C430.576103,321.149841 424.831625,309.931618 427.752807,308.309964 C429.253486,307.476883 435.856167,314.310424 441.609214,316.309964 C447.0549,318.202677 442.609214,314.577913 449.20729,309.14971 Z" id="Rectangle" fill="#FFFFFF" transform="translate(430.7621, 324.6219) rotate(-30) translate(-430.7621, -324.6219)"></path>
        <path d="M162.02117,144.121255 L163.549462,133.183751 L163.65188,132.450776 L173.100808,139.981895 L178.154755,130.847676 L191.298779,133.537402 C176.80172,143.462645 168.63222,152.89859 166.790279,161.845235 C164.991496,170.582252 157.6046,170.496498 153.197444,169.202712 C144.619671,166.684579 140.382427,158.368518 140.48571,144.254529 L150.371654,150.440651 L151.614805,137.461646 L162.02117,144.121255 Z" id="Rectangle" fill="#F2C47F" transform="translate(165.8913, 150.343) rotate(-165) translate(-165.8913, -150.343)"></path>
        <polygon id="Rectangle" fill="#261E23" points="347.618851 76.0517879 361.937007 87.6855095 332.24198 111.724341"></polygon>
        <polygon id="Rectangle" fill="#261E23" points="308.044527 63.8907117 325.356166 68.3887817 311.659122 105.937928"></polygon>
        <polygon id="Rectangle" fill="#261E23" points="273.635322 62.724341 293.471367 63.3873554 284.6704 106.539311"></polygon>
    </g>
</svg>