<?xml version="1.0" encoding="UTF-8"?>
<svg width="223px" height="166px" viewBox="0 0 223 166" version="1.1" xmlns="http://www.w3.org/2000/svg" xmlns:xlink="http://www.w3.org/1999/xlink">
    <title>Artboard</title>
    <defs>
        <radialGradient cx="24.8925295%" cy="-18.5111322%" fx="24.8925295%" fy="-18.5111322%" r="126.193439%" gradientTransform="translate(0.2489, -0.1851), scale(0.5857, 1), rotate(-47.4323), scale(1, 1.3702), translate(-0.2489, 0.1851)" id="radialGradient-1">
            <stop stop-color="#D1CFC7" offset="0%"></stop>
            <stop stop-color="#261E23" offset="100%"></stop>
        </radialGradient>
        <radialGradient cx="11.2503951%" cy="-47.6537544%" fx="11.2503951%" fy="-47.6537544%" r="217.06278%" gradientTransform="translate(0.1125, -0.4765), scale(0.2549, 1), rotate(-25.3512), scale(1, 1.3702), translate(-0.1125, 0.4765)" id="radialGradient-2">
            <stop stop-color="#D1CFC7" offset="0%"></stop>
            <stop stop-color="#261E23" offset="100%"></stop>
        </radialGradient>
        <radialGradient cx="71.6993257%" cy="-25.2270915%" fx="71.6993257%" fy="-25.2270915%" r="145.084702%" gradientTransform="translate(0.717, -0.2523), scale(0.6845, 1), rotate(-168.5623), scale(1, 1.3702), translate(-0.717, 0.2523)" id="radialGradient-3">
            <stop stop-color="#D1CFC7" offset="0%"></stop>
            <stop stop-color="#261E23" offset="100%"></stop>
        </radialGradient>
        <radialGradient cx="50%" cy="-19.2828085%" fx="50%" fy="-19.2828085%" r="198.649769%" gradientTransform="translate(0.5, -0.1928), scale(1, 0.4834), rotate(-75.4219), scale(1, 0.7164), translate(-0.5, 0.1928)" id="radialGradient-4">
            <stop stop-color="#D1CFC7" offset="0%"></stop>
            <stop stop-color="#261E23" offset="100%"></stop>
        </radialGradient>
    </defs>
    <g id="Artboard" stroke="none" stroke-width="1" fill="none" fill-rule="evenodd">
        <path d="M165.716695,59.0263158 C149.785817,36.0858513 155.716695,6.02631579 144.716695,5.02631579 C137.383362,4.35964912 130.81113,15.3508772 125,38 L65,63 C44.8111303,50.3508772 32.7166954,46.0263158 28.7166954,50.0263158 C22.7166954,56.0263158 43.0274424,91.1953119 44.7166954,109.026316 C45.842864,120.913652 38.1761974,128.580318 21.7166954,132.026316 C45.5152195,149.359649 63.5152195,158.026316 75.7166954,158.026316 C87.7166954,158.026316 84.7166954,151.026316 103.716695,158.026316 C126.422668,166.391674 156.022837,151.229709 169.716695,130.026316 C177.719715,117.634543 185.612845,129.019062 190.716695,120.026316 C196.100776,110.539817 198.767443,93.87315 198.716695,70.0263158 C187.337281,77.9866255 176.337281,74.3199588 165.716695,59.0263158 Z" id="dewey-head" stroke="#261E23" stroke-width="5" fill="#E09F3E" stroke-linecap="square"></path>
        <g id="head-stripes" transform="translate(96.773, 64.651) rotate(-7) translate(-96.773, -64.651)translate(89.3634, 49.2844)" fill="#261E23">
            <polygon id="Rectangle" points="-1.49761942e-11 3.72586878 10.5523167 -4.95348458e-15 14.8190971 30.7331708"></polygon>
        </g>
        <g id="head-stripes" transform="translate(109.773, 59.651) rotate(-7) translate(-109.773, -59.651)translate(102.3634, 44.2844)" fill="#261E23">
            <polygon id="Rectangle" points="-1.61282798e-11 3.72586878 10.5523167 -6.87053885e-13 14.8190971 30.7331708"></polygon>
        </g>
        <g id="head-stripes" transform="translate(83.773, 69.651) rotate(-7) translate(-83.773, -69.651)translate(76.3634, 54.2844)" fill="#261E23">
            <polygon id="Rectangle" points="-1.69078899e-11 3.72586878 10.5523167 -1.98451607e-13 14.8190971 30.7331708"></polygon>
        </g>
        <g id="whiskers" transform="translate(5, 48.2563)" stroke-linecap="round" stroke-width="5">
            <path d="M17.1166954,48.7436658 C14.4500287,44.7436658 11.4500287,43.7436658 8.11669538,45.7436658 C3.11669538,48.7436658 13.1555692,64.8770934 25.1166954,71.7436658 C33.0907795,76.3213808 45.4241128,77.9880475 62.1166954,76.7436658" id="Line-2" stroke="url(#radialGradient-1)"></path>
            <path d="M7.14643172,91.1225926 C1.14643172,93.7892592 -1.18690161,97.1225926 0.14643172,101.122593 C2.14643172,107.122593 45.0764288,92.2352041 66.3339,85.5542846" id="Line-2" stroke="url(#radialGradient-2)" transform="translate(33.0583, 94.036) scale(1, -1) rotate(30) translate(-33.0583, -94.036)"></path>
            <path d="M172.001848,68.6787661 C182.908647,68.1510397 191.580867,65.8384323 198.018509,61.7409439 C207.67497,55.5947114 211.751755,46.5779721 210.055701,44.4579043 C207.389034,41.124571 204.055701,41.7912377 200.055701,46.4579043" id="Line-2" stroke="url(#radialGradient-3)" transform="translate(191.2159, 55.5267) scale(1, -1) rotate(30) translate(-191.2159, -55.5267)"></path>
            <path d="M165.216695,45.2699816 C174.663192,34.1134519 180.296525,26.2713466 182.116695,21.7436658 C184.846951,14.9521446 189.017231,7.67457571 186.116695,2.74366584 C184.183005,-0.5436074 181.183005,-0.876940734 177.116695,1.74366584" id="Line-2" stroke="url(#radialGradient-4)"></path>
        </g>
        <g id="cat-eyes" transform="translate(111.0307, 97.4008) rotate(-360) translate(-111.0307, -97.4008)translate(76.9447, 78)" stroke="#261E23" stroke-linecap="round" stroke-width="5">
            <path d="M51.1719934,17 C49.8386601,15 50.1719934,13 52.1719934,11 C54.1719934,9 59.5053267,5.33333333 68.1719934,0" id="Line"></path>
            <path d="M4.17199341,35 C2.83866008,33 3.17199341,31 5.17199341,29 C7.17199341,27 12.5053267,23.3333333 21.1719934,18" id="Line" transform="translate(12.272, 26.5) scale(-1, 1) rotate(48) translate(-12.272, -26.5)"></path>
        </g>
        <g id="cat-mouth" transform="translate(100.1167, 107.0263)">
            <path d="M0,26.9736842 C8.68413706,30.029481 14.8841371,31.3715863 18.6,31 C24.1737944,30.4426206 28,23.9736842 26,19.9736842 C24.6666667,17.3070175 23.0333333,13.8157895 21.1,9.5" id="Line-2" stroke="#261E23" stroke-width="5" stroke-linecap="round"></path>
            <path d="M25,17.9736842 C27.1536302,22.7136418 30.8202968,24.7136418 36,23.9736842 C40.6666667,23.3070175 44.3333333,18.9736842 47,10.9736842" id="Line-2" stroke="#261E23" stroke-width="5" stroke-linecap="round"></path>
            <path d="M24.7402702,18 C25.3415972,16.8241051 25.7759293,15.9591267 26.0432665,15.4050649 C27.0250785,13.3702399 27.8071152,11.5385434 28.3893768,9.9099754 C30.1480564,4.99100226 30.0841892,1.92516841 28.1977754,0.71247383 C24.0486945,-1.95479248 9.44565672,3.42542958 8.60524578,7.6274843 C8.31752062,9.06611012 9.59596948,10.6777767 12.4405924,12.4624839 C13.1429538,12.9031432 14.2401203,13.4989916 15.6807417,14.1955032 C16.6342515,14.656506 17.7382211,15.1616071 18.9777615,15.6949965 C20.0961382,16.1762477 22.0169744,16.9445822 24.7402702,18 Z" id="Oval" fill="#261E23"></path>
        </g>
        <g id="cat-ears" transform="translate(31.7113, 9.5896)" fill="#261E23">
            <path d="M11.00542,76.4366769 L16.2887246,70.4103611 L13.2887246,66.4103611 L17.2887246,64.4103611 L14.2887246,61.4103611 L18.2887246,59.4103611 C12.1821661,52.1784464 8.75439787,48.1872184 8.00542002,47.4366769 C5.05729117,44.4823931 0.396039592,43.483579 0.00542002016,45.4366769 C-0.161015108,46.2688525 3.50565156,56.6021858 11.00542,76.4366769 Z" id="Oval"></path>
            <path d="M116.00542,34.4366769 L121.288725,28.4103611 L118.288725,24.4103611 L122.288725,22.4103611 L119.288725,19.4103611 L123.288725,17.4103611 C117.182166,10.1784464 113.754398,6.18721838 113.00542,5.43667685 C110.057291,2.48239307 105.39604,1.48357899 105.00542,3.43667685 C104.838985,4.26885249 108.505652,14.6021858 116.00542,34.4366769 Z" id="Oval" transform="translate(114.1444, 18.4323) scale(-1, 1) rotate(30) translate(-114.1444, -18.4323)"></path>
        </g>
    </g>
</svg>